/* XPM */
static char *test[] = {
"8 8 2 1",
"  c #FFFF00",
". c #000000",
"........",
"  ......",
"    ....",
"      ..",
"      ..",
"    ....",
"  ......",
"........"
};
